<svg xmlns="http://www.w3.org/2000/svg" xmlns:xlink="http://www.w3.org/1999/xlink" width="536" height="536" viewBox="0 0 536 536">
  <defs>
    <clipPath id="clip-path">
      <circle id="Ellipse_924" data-name="Ellipse 924" cx="214.881" cy="214.881" r="214.881" transform="translate(0 0)" fill="#fff"/>
    </clipPath>
    <clipPath id="clip-M11_Main_Banner_-_536x536_-_opcao2">
      <rect width="536" height="536"/>
    </clipPath>
  </defs>
  <g id="M11_Main_Banner_-_536x536_-_opcao2" data-name="M11 – Main Banner - 536x536 - opcao2" clip-path="url(#clip-M11_Main_Banner_-_536x536_-_opcao2)">
    <g id="Group_5886" data-name="Group 5886" transform="translate(83.62 3290.163)">
      <g id="Group_5807" data-name="Group 5807" transform="translate(8.73 -3266.989) rotate(9)">
        <g id="Group_4917" data-name="Group 4917" transform="translate(0 0)">
          <g id="Group_4916" data-name="Group 4916">
            <g id="Layer5_0_FILL" data-name="Layer5 0 FILL">
              <path id="Path_3315" data-name="Path 3315" d="M365.4,365.4q62.7-62.674,62.7-151.35T365.4,62.674Q302.731,0,214.054,0T62.674,62.674Q0,125.378,0,214.054T62.674,365.4q62.7,62.7,151.381,62.7T365.4,365.4Z" fill="#232d3e"/>
            </g>
          </g>
        </g>
        <g id="Group_4919" data-name="Group 4919" transform="translate(9.702 12.97)">
          <g id="Group_4918" data-name="Group 4918" transform="translate(0 0)">
            <g id="Layer4_0_FILL" data-name="Layer4 0 FILL">
              <path id="Path_3316" data-name="Path 3316" d="M44.791,154.491l-.156.124a.873.873,0,0,0-.342.715.891.891,0,0,0,.373.56l.093.062.155.031h.436l.124-.093q.466-.373.373-.746a1.065,1.065,0,0,0-.342-.529l-.155-.124h-.56M24.45,117.167h-.56l-.155.124a.874.874,0,0,0-.342.715.893.893,0,0,0,.373.56l.093.062.155.031h.436l.125-.093q.466-.373.373-.746a1.066,1.066,0,0,0-.342-.529.336.336,0,0,0-.155-.124M1.215,204.879l-.155-.124H.5l-.155.124a.873.873,0,0,0-.342.715.892.892,0,0,0,.373.56l.093.062.155.031H1.06l.124-.093q.466-.373.373-.747a1.065,1.065,0,0,0-.342-.529M44.791,216.7l-.156.124a.873.873,0,0,0-.342.715.892.892,0,0,0,.373.56l.093.062.155.031h.436l.124-.093q.466-.373.373-.746a1.065,1.065,0,0,0-.342-.529l-.155-.124h-.56m46.5-44.167-.156-.124h-.56l-.156.124a.872.872,0,0,0-.342.715.891.891,0,0,0,.373.56l.093.062.155.031h.435l.124-.093q.467-.373.373-.747a1.063,1.063,0,0,0-.342-.529m3.857,77.417a.6.6,0,0,0,.125.28,1.654,1.654,0,0,0,.933.747l.218.031.436-.155c.1-.042.155-.073.155-.093l.093-.187a2.355,2.355,0,0,0,0-.933.464.464,0,0,0-.124-.342l-.28-.187a2.224,2.224,0,0,0-.342-.156,1.2,1.2,0,0,1-.373.093.762.762,0,0,0-.311,0l-.187.156q-.4.467-.342.746M127.4,228.891a.667.667,0,0,0-.4-.467.834.834,0,0,0-.373-.031,1.3,1.3,0,0,0-1.026.529.769.769,0,0,0-.187.435.75.75,0,0,0,.28.591l.187.155a3.172,3.172,0,0,1,.342.093,1.729,1.729,0,0,0,.777-.031.756.756,0,0,0,.467-.529,1.182,1.182,0,0,0-.062-.747M246.435,128.022l-.715.218-.156.156-.155.28-.062.311q.031.217.435.5l.28.093.56-.031a.834.834,0,0,0,.342-.124.652.652,0,0,0,.217-.467v-.342q-.062-.217-.622-.56l-.125-.031m-44.167,15.645a.336.336,0,0,0-.156-.124h-.56l-.155.124a.872.872,0,0,0-.342.715.892.892,0,0,0,.373.56l.093.062.155.031h.436l.124-.093q.467-.373.373-.746a1.066,1.066,0,0,0-.342-.529M73.718,59.936h-.56L73,60.061a.873.873,0,0,0-.342.715.893.893,0,0,0,.374.56l.093.062.156.031h.435l.124-.093q.467-.373.373-.747a1.065,1.065,0,0,0-.342-.529l-.155-.124m59.377,29.486-.155-.124h-.56a.334.334,0,0,0-.156.124.873.873,0,0,0-.342.715.892.892,0,0,0,.373.56l.093.062.156.031h.436l.124-.093q.467-.373.373-.746a1.065,1.065,0,0,0-.342-.529m6.718-74.8-.124-.062-.84.218a.474.474,0,0,0-.156.187,1.148,1.148,0,0,0-.218.622.756.756,0,0,0,.4.4,1.416,1.416,0,0,0,.467.124h.218l.249-.031a1.086,1.086,0,0,0,.436-.124.957.957,0,0,0,.186-.5l-.031-.311q-.062-.249-.591-.529m53,58.879-.155-.124h-.56l-.156.124a.874.874,0,0,0-.342.715.891.891,0,0,0,.373.56l.093.062.156.031h.435l.125-.093q.466-.373.373-.746a1.062,1.062,0,0,0-.342-.529m188.114,96.048-.156-.124h-.56l-.155.124a.873.873,0,0,0-.342.715.893.893,0,0,0,.373.56l.093.062.156.031h.435l.125-.093q.466-.373.373-.747a1.066,1.066,0,0,0-.342-.529m-73.155-18.911-.155-.124h-.56l-.156.124a.872.872,0,0,0-.342.715.891.891,0,0,0,.373.56l.093.062.155.031h.436l.124-.093q.467-.373.373-.746a1.067,1.067,0,0,0-.342-.529M83.3,336.416a.751.751,0,0,0-.187.4.9.9,0,0,0,.342.684.183.183,0,0,0,.155.093l.155.031h.871a.552.552,0,0,0,.311-.249,1.117,1.117,0,0,0,.218-.4.645.645,0,0,0-.062-.373.759.759,0,0,0-.28-.342,1.82,1.82,0,0,0-.871-.249v.124q-.311-.124-.653.28M61.929,184.973l-.155-.124h-.56l-.155.124a.873.873,0,0,0-.342.715.891.891,0,0,0,.373.56l.093.062.155.031h.435l.124-.093q.466-.373.374-.746a1.066,1.066,0,0,0-.342-.529M221.957.871l-.125.746a.88.88,0,0,0,.218.529,1.461,1.461,0,0,0,1.4.778,1.364,1.364,0,0,0,.964-.591A1.434,1.434,0,0,0,224.508.84,1.48,1.48,0,0,0,223.295,0V.093q-.5-.156-1.089.435l-.249.342m2.55,103.481a1.48,1.48,0,0,0-1.213-.84v.093q-.5-.156-1.089.435l-.249.342-.125.747a.88.88,0,0,0,.218.529,1.461,1.461,0,0,0,1.4.778,1.364,1.364,0,0,0,.964-.591,1.434,1.434,0,0,0,.093-1.493M342.3,180.8a1.161,1.161,0,0,0,.062.746,1.349,1.349,0,0,0,.591.746,1.457,1.457,0,0,0,1.431.218,1.3,1.3,0,0,0,.653-.467,1.379,1.379,0,0,0,.124-1.617,1.416,1.416,0,0,0-1.431-.778v.062a1.376,1.376,0,0,0-1.307.746l-.124.342m43.856-51.072a1.434,1.434,0,0,0,.093-1.493,1.48,1.48,0,0,0-1.213-.84v.093q-.5-.156-1.089.435l-.249.342-.124.746a.879.879,0,0,0,.218.529,1.461,1.461,0,0,0,1.4.778,1.364,1.364,0,0,0,.964-.591M248.582,158.286l-.248.342-.125.747a.881.881,0,0,0,.218.529,1.461,1.461,0,0,0,1.4.778,1.364,1.364,0,0,0,.964-.591,1.434,1.434,0,0,0,.093-1.493,1.48,1.48,0,0,0-1.213-.84v.093q-.5-.156-1.089.435M180.5,29.362v.093q-.5-.156-1.089.435l-.249.342-.124.746a.88.88,0,0,0,.218.529,1.461,1.461,0,0,0,1.4.778,1.364,1.364,0,0,0,.964-.591,1.434,1.434,0,0,0,.093-1.493,1.48,1.48,0,0,0-1.213-.84m-10.948,73.155v.093q-.5-.156-1.089.435l-.249.342-.124.746a.88.88,0,0,0,.218.529,1.461,1.461,0,0,0,1.4.778,1.365,1.365,0,0,0,.964-.591,1.434,1.434,0,0,0,.093-1.493,1.48,1.48,0,0,0-1.213-.84M113.81,51.85q-.5-.156-1.089.435l-.249.342-.125.746a.879.879,0,0,0,.218.529,1.461,1.461,0,0,0,1.4.778,1.365,1.365,0,0,0,.964-.591,1.434,1.434,0,0,0,.093-1.493,1.479,1.479,0,0,0-1.213-.84v.093m13.934,215.392v.093q-.5-.156-1.089.435l-.249.342-.125.746a.881.881,0,0,0,.218.529,1.462,1.462,0,0,0,1.4.778,1.364,1.364,0,0,0,.964-.591,1.433,1.433,0,0,0,.093-1.493,1.479,1.479,0,0,0-1.213-.84M28.866,243.229l-.124.747a.878.878,0,0,0,.218.529,1.461,1.461,0,0,0,1.4.778,1.365,1.365,0,0,0,.964-.591,1.434,1.434,0,0,0,.093-1.493,1.48,1.48,0,0,0-1.213-.84v.093q-.5-.156-1.089.436l-.249.342m50.605-29.237v.093q-.5-.156-1.089.435l-.249.342-.124.746a.88.88,0,0,0,.218.529,1.462,1.462,0,0,0,1.4.778,1.364,1.364,0,0,0,.964-.591,1.434,1.434,0,0,0,.093-1.493,1.48,1.48,0,0,0-1.213-.84M30.2,175.268q-.5-.156-1.089.435l-.249.342-.124.746a.878.878,0,0,0,.218.529,1.461,1.461,0,0,0,1.4.778,1.365,1.365,0,0,0,.964-.591,1.434,1.434,0,0,0,.093-1.493,1.48,1.48,0,0,0-1.213-.84Z" fill="#fff"/>
            </g>
          </g>
        </g>
        <g id="Group_4957" data-name="Group 4957" transform="translate(363.667 78.313)">
          <g id="Group_4956" data-name="Group 4956" transform="translate(0 0)">
            <g id="Layer1_0_MEMBER_1_FILL" data-name="Layer1 0 MEMBER 1 FILL" transform="translate(0)">
              <path id="Path_3336" data-name="Path 3336" d="M0,.205.346.378V0Z" fill="#d3864f"/>
            </g>
          </g>
        </g>
        <g id="Group_4961" data-name="Group 4961" transform="translate(305.546 67.535)">
          <g id="Group_4960" data-name="Group 4960" transform="translate(0 0)">
            <g id="Layer0_0_FILL" data-name="Layer0 0 FILL" transform="translate(0 0)">
              <path id="Path_3338" data-name="Path 3338" d="M2.955,21.959a1.536,1.536,0,0,0-.467-.373,2.082,2.082,0,0,0-.56-.218H1.773a.061.061,0,0,1-.031-.031q-.067,0-.155,0H1.493a.521.521,0,0,0-.155.031H1.182a2.287,2.287,0,0,0-.684.249l-.124.155A2,2,0,0,0,0,22.954a1.948,1.948,0,0,0,.591,1.431,1.907,1.907,0,0,0,1.089.56l.124.031h.125a.493.493,0,0,1,.062,0h.187a2.1,2.1,0,0,0,.933-.249.674.674,0,0,0,.093-.155l-.093.093H3.079a.028.028,0,0,1,.031-.031,2.043,2.043,0,0,0,.435-1.12v-.155a1.849,1.849,0,0,0-.591-1.4M4.728,8.242l-.218.311a3.249,3.249,0,0,0-.622,1.991,3.405,3.405,0,0,0,1,2.457,3.162,3.162,0,0,0,1.9.964l.5.031h.031a3.277,3.277,0,0,0,1.773-.467l.031-.031.031-.031a.028.028,0,0,1,.031-.031,3.261,3.261,0,0,0,.809-2.208,3.537,3.537,0,0,0-.9-2.271A.978.978,0,0,0,8.958,8.8a4.622,4.622,0,0,0-.84-.622,5.345,5.345,0,0,0-.964-.342.923.923,0,0,0-.217-.031A3.123,3.123,0,0,0,6.5,7.776H6.438a1.6,1.6,0,0,0-.311.031H5.91a.231.231,0,0,1-.093,0,4.6,4.6,0,0,0-1.088.436M14.9,1.586c0,.021,0,.042,0,.062v.062a1.712,1.712,0,0,0,.467,1.213c.032.033.063.064.093.093a1.641,1.641,0,0,0,1.027.5.329.329,0,0,0,.093.031l.28.031h.031a1.708,1.708,0,0,0,1-.28h.031l.031-.031V3.235a1.628,1.628,0,0,0,.28-.436.1.1,0,0,0,.031-.062,1.793,1.793,0,0,0,.155-.747,2.008,2.008,0,0,0-.591-1.4,1.784,1.784,0,0,0-.466-.342A2.083,2.083,0,0,0,16.8.031.278.278,0,0,0,16.671,0H16.08A3.307,3.307,0,0,0,15.4.249l-.124.187A1.865,1.865,0,0,0,14.9,1.586M32.316,7.558a1.916,1.916,0,0,0-.529-1.275,2.8,2.8,0,0,0-.436-.311,2.3,2.3,0,0,0-.529-.186.126.126,0,0,0-.093-.031H30.2a2.015,2.015,0,0,0-.622.218l-.124.187a1.612,1.612,0,0,0-.342,1.026,1.738,1.738,0,0,0,.529,1.275,1.807,1.807,0,0,0,1,.529l.249.031h.031a1.741,1.741,0,0,0,.933-.249V8.74l.031-.031h.031a1.772,1.772,0,0,0,.4-1.151m2.239,15.178h-.031a.619.619,0,0,0-.28.062h-.217a3.229,3.229,0,0,0-1.089.373l-.218.311a2.948,2.948,0,0,0-.591,1.835,3.2,3.2,0,0,0,.933,2.3,3.09,3.09,0,0,0,1.742.9l.5.031H35.4a2.412,2.412,0,0,0,.342,0h.093c.047,0,.088,0,.124,0q.326-.062.622-.124a2.51,2.51,0,0,0,.591-.28,2.514,2.514,0,0,0,.311-.436l-.4.342-.093.031.031-.031a.055.055,0,0,1,.062-.062,3.09,3.09,0,0,0,.715-2.022,2.455,2.455,0,0,0-.031-.342,3.065,3.065,0,0,0-.9-1.9,3.356,3.356,0,0,0-.777-.591,2.291,2.291,0,0,0-.218-.093,3.209,3.209,0,0,0-.684-.218.7.7,0,0,0-.218-.031,1.274,1.274,0,0,0-.4-.062M21.9,30.388a4.487,4.487,0,0,0-1.306.5l-.28.342a3.771,3.771,0,0,0-.684,2.239,3.723,3.723,0,0,0,1.12,2.737,3.5,3.5,0,0,0,2.115,1.089l.56.062h.062a3.6,3.6,0,0,0,1.96-.529l.031-.031.062-.062a.028.028,0,0,1,.031-.031,3.863,3.863,0,0,0-.249-5.163,4.455,4.455,0,0,0-.933-.684,4.323,4.323,0,0,0-1.089-.4.613.613,0,0,0-.28-.062,3.323,3.323,0,0,0-.466-.031h-.031a2.284,2.284,0,0,0-.373.031H21.9M20.839,16.827a3.4,3.4,0,0,0-.4-.466.328.328,0,0,0-.031-.031c-.021-.023-.042-.044-.062-.062a.828.828,0,0,0-.062-.062,5.737,5.737,0,0,0-.871-.622c-.155-.073-.321-.146-.5-.218-.155-.055-.32-.108-.5-.155s-.335-.087-.5-.125q-.337-.031-.684-.031a4.457,4.457,0,0,0-2.333.653,4.281,4.281,0,0,0-1.151,3.048l.311,1.742a4.806,4.806,0,0,0,1.026,1.493,5.236,5.236,0,0,0,1.027.809l2.053.56h.187a4.626,4.626,0,0,0,2.333-.622,4.4,4.4,0,0,0,.84-1.4,1.88,1.88,0,0,0,.155-.467c.013,0,.024-.011.031-.031a1.992,1.992,0,0,0,.063-.4,4.068,4.068,0,0,0,.062-1.058c-.006-.091-.016-.184-.031-.28l-.031-.218a3.589,3.589,0,0,0-.093-.4,4.673,4.673,0,0,0-.467-1.12,3.743,3.743,0,0,0-.373-.529M10.762,36.516a2.729,2.729,0,0,0-.808-1.928,3.4,3.4,0,0,0-.685-.529,2.939,2.939,0,0,0-.746-.249c-.063-.012-.125-.023-.187-.031a2.7,2.7,0,0,0-.342-.031H7.963q-.135,0-.28,0a1.214,1.214,0,0,1-.155.031,2.8,2.8,0,0,0-.933.342l-.187.249a2.627,2.627,0,0,0-.5,1.586,2.669,2.669,0,0,0,.809,1.96,2.536,2.536,0,0,0,1.493.777l.373.031h.062a2.563,2.563,0,0,0,1.4-.373l.031-.031.031-.031a.331.331,0,0,1,.031-.031A2.616,2.616,0,0,0,10.762,36.516Z" transform="translate(3.919 1.588)" fill="#ebc1e0"/>
              <path id="Path_3339" data-name="Path 3339" d="M1.089,21.43l-.342.062a2.571,2.571,0,0,0-.653.435L0,22.021a2.292,2.292,0,0,1,.684-.249H.84A.521.521,0,0,1,1,21.741h.093a1.515,1.515,0,0,0,.155,0,.063.063,0,0,0,.031.031h.156a2.09,2.09,0,0,1,.56.218,1.533,1.533,0,0,1,.466.373,1.849,1.849,0,0,1,.591,1.4v.155a2.044,2.044,0,0,1-.436,1.12.028.028,0,0,0-.031.031h.031l.093-.093a.67.67,0,0,1-.093.156l.342-.311a1.819,1.819,0,0,0,.373-.529,1.805,1.805,0,0,0,.187-.933,2.06,2.06,0,0,0-.218-.933,3.825,3.825,0,0,0-.342-.467,2.062,2.062,0,0,0-1.431-.622l-.436.093M5.319,8.211a.239.239,0,0,0,.093,0H5.63a1.586,1.586,0,0,1,.311-.031H6a3.08,3.08,0,0,1,.435.031.926.926,0,0,1,.218.031,5.348,5.348,0,0,1,.964.342,4.622,4.622,0,0,1,.84.622.98.98,0,0,1,.124.155,3.537,3.537,0,0,1,.9,2.271,3.261,3.261,0,0,1-.809,2.208.028.028,0,0,0-.031.031l-.031.031.062-.031.591-.467a.126.126,0,0,1,.093-.031l.591-.84a3.446,3.446,0,0,0,.311-1.586,3.565,3.565,0,0,0-.373-1.617,3.212,3.212,0,0,0-.622-.778A3.359,3.359,0,0,0,6.843,7.5H6.812l-1.275.28a3.659,3.659,0,0,0-1.151.746l-.155.124a4.59,4.59,0,0,1,1.089-.435M14.992.591,14.9.653A3.308,3.308,0,0,1,15.583.4h.591A.278.278,0,0,1,16.3.435a2.072,2.072,0,0,1,.56.218A1.79,1.79,0,0,1,17.325,1a2.01,2.01,0,0,1,.591,1.4,1.8,1.8,0,0,1-.156.746.1.1,0,0,1-.031.062,1.632,1.632,0,0,1-.28.435V3.67l.342-.28h.063l.342-.5a1.844,1.844,0,0,0,.156-.9,2.348,2.348,0,0,0-.187-.933,1.9,1.9,0,0,0-.374-.435A1.92,1.92,0,0,0,16.423,0h-.031l-.746.155a2.566,2.566,0,0,0-.653.435m16.36,8.554.062-.031h-.031l-.031.031M31.29,6.687a1.917,1.917,0,0,1,.529,1.275,1.775,1.775,0,0,1-.4,1.151l.28-.249h.062l.311-.435a1.6,1.6,0,0,0,.155-.84,1.982,1.982,0,0,0-.186-.84,3.235,3.235,0,0,0-.342-.4,1.819,1.819,0,0,0-1.244-.56h-.031l-.684.155a2.012,2.012,0,0,0-.591.373l-.062.062a2.01,2.01,0,0,1,.622-.218h.529a.127.127,0,0,1,.093.031,2.309,2.309,0,0,1,.529.187,2.82,2.82,0,0,1,.435.311m2.737,16.454h.031a1.264,1.264,0,0,1,.4.062.693.693,0,0,1,.218.031,3.189,3.189,0,0,1,.685.218,2.286,2.286,0,0,1,.218.093,3.364,3.364,0,0,1,.777.591,3.065,3.065,0,0,1,.9,1.9,2.452,2.452,0,0,1,.031.342,3.09,3.09,0,0,1-.715,2.022.055.055,0,0,0-.062.062l-.031.031.093-.031.4-.342a2.5,2.5,0,0,1-.311.436,2.557,2.557,0,0,0,.529-.436,2.317,2.317,0,0,0,.467-.622l.342-1.244v-.093q.008-.213,0-.435A3.711,3.711,0,0,0,37.7,24.23a4.716,4.716,0,0,0-.591-.715,3.165,3.165,0,0,0-2.239-.964h-.031l-1.213.249a3.292,3.292,0,0,0-1.058.684l-.124.093A3.23,3.23,0,0,1,33.53,23.2h.218a.613.613,0,0,1,.28-.062M20.249,31.166l-.155.124a4.492,4.492,0,0,1,1.306-.5h.249a2.3,2.3,0,0,1,.373-.031h.031a3.343,3.343,0,0,1,.467.031.612.612,0,0,1,.28.062,4.321,4.321,0,0,1,1.089.4,4.456,4.456,0,0,1,.933.684,3.863,3.863,0,0,1,.249,5.163.028.028,0,0,0-.031.031l-.062.062.093-.062.653-.529a.127.127,0,0,1,.093-.031l.653-.933a3.4,3.4,0,0,0,.342-1.773,4.109,4.109,0,0,0-.4-1.8,4.514,4.514,0,0,0-.685-.871,4,4,0,0,0-2.706-1.182h-.031l-1.462.311a3.5,3.5,0,0,0-1.275.84m-.311-14.4a3.353,3.353,0,0,1,.4.467,3.75,3.75,0,0,1,.373.529,4.655,4.655,0,0,1,.466,1.12,3.56,3.56,0,0,1,.093.4l.031.218c.015.1.025.189.031.28a4.267,4.267,0,0,1,0,.746,1.622,1.622,0,0,1-.062.311,1.981,1.981,0,0,1-.062.4c-.007.02-.018.03-.031.031a1.847,1.847,0,0,1-.155.466,4.4,4.4,0,0,1-.84,1.4,4.081,4.081,0,0,0,.933-.746,4.388,4.388,0,0,0,1-1.493l.342-1.742a4.512,4.512,0,0,0-1.337-3.266,4.443,4.443,0,0,0-3.266-1.337,4.512,4.512,0,0,0-3.266,1.337l-.155.155a4.552,4.552,0,0,1,2.986-.56q.245.057.5.124c.177.048.342.1.5.156q.264.108.5.218a5.769,5.769,0,0,1,.871.622.816.816,0,0,1,.062.062c.021.019.041.039.062.062a.3.3,0,0,1,.031.031m-9.051,19.6a2.654,2.654,0,0,0-.311-1.275,2.58,2.58,0,0,0-.467-.622,2.745,2.745,0,0,0-1.928-.84H8.149l-1.058.187a3.086,3.086,0,0,0-.871.622l-.124.093a2.8,2.8,0,0,1,.933-.342,1.2,1.2,0,0,0,.156-.031c.1,0,.189,0,.28,0H7.5a2.662,2.662,0,0,1,.342.031c.062.008.124.019.186.031a2.942,2.942,0,0,1,.746.249,3.378,3.378,0,0,1,.684.529,2.729,2.729,0,0,1,.809,1.928,2.618,2.618,0,0,1-.622,1.742.3.3,0,0,0-.031.031l-.031.031.063-.031.466-.373a.108.108,0,0,0,.031-.062l.466-.622A2.58,2.58,0,0,0,10.886,36.36Z" transform="translate(4.417 1.184)" fill="#eda3cc"/>
              <path id="Path_3340" data-name="Path 3340" d="M38.414,10.017V9.986a27.646,27.646,0,0,0-2.519-2.893A23.382,23.382,0,0,0,18.757,0a24.492,24.492,0,0,0-8.4,1.431A25.409,25.409,0,0,0,7.093,4.2a33.43,33.43,0,0,0-2.3,2.613c-.05.065-.1.127-.156.187a.231.231,0,0,1-.093.093.806.806,0,0,1-.124.187L1.463,12.786q-.164.456-.311.9t-.28.871L0,20.841v.124q0,.189,0,.373l.031,1.275.436-.093a2.062,2.062,0,0,1,1.431.622,3.84,3.84,0,0,1,.342.466,2.061,2.061,0,0,1,.218.933,1.8,1.8,0,0,1-.187.933A1.813,1.813,0,0,1,1.9,26l-.342.311a2.1,2.1,0,0,1-.933.249H.5a22.932,22.932,0,0,0,4.354,9.393l.187-.249.125-.093a3.085,3.085,0,0,1,.871-.622l1.057-.187h.031a2.745,2.745,0,0,1,1.928.84,2.57,2.57,0,0,1,.467.622,2.65,2.65,0,0,1,.311,1.275,2.58,2.58,0,0,1-.28,1.275l-.467.622a.107.107,0,0,1-.031.062l-.466.373a22.667,22.667,0,0,0,7.278,4.292,23.406,23.406,0,0,0,8.367,1.4,23.256,23.256,0,0,0,8.367-1.4,25.673,25.673,0,0,0,3.3-2.8,23.54,23.54,0,0,0,7.029-15.21,23.492,23.492,0,0,0-4.51-16.143M13.376,17.233l.155-.155A4.51,4.51,0,0,1,16.8,15.74a4.443,4.443,0,0,1,3.266,1.337A4.512,4.512,0,0,1,21.4,20.344l-.342,1.742a4.26,4.26,0,0,1-1,1.524,4.01,4.01,0,0,1-.933.715,4.624,4.624,0,0,1-2.333.622h-.187l-2.053-.56a4.853,4.853,0,0,1-1.026-.778,4.655,4.655,0,0,1-1.026-1.524l-.311-1.742A4.28,4.28,0,0,1,13.345,17.3l.031-.062m5.661,15.241.156-.124a3.5,3.5,0,0,1,1.275-.84l1.462-.311h.031a4,4,0,0,1,2.706,1.182,4.513,4.513,0,0,1,.684.871,4.11,4.11,0,0,1,.4,1.8,3.4,3.4,0,0,1-.342,1.773l-.653.933a.127.127,0,0,0-.093.031l-.653.529-.093.062-.031.031a3.6,3.6,0,0,1-1.96.529h-.062l-.56-.062a3.5,3.5,0,0,1-2.115-1.089,3.723,3.723,0,0,1-1.12-2.737,3.771,3.771,0,0,1,.684-2.24l.28-.342m12.13-7.4.218-.311.124-.093a3.29,3.29,0,0,1,1.058-.684l1.213-.249h.031a3.166,3.166,0,0,1,2.24.964,4.711,4.711,0,0,1,.591.715,3.709,3.709,0,0,1,.311,1.493c.005.149.005.294,0,.436v.093L36.61,28.68a2.351,2.351,0,0,1-.466.653l-.529.435a2.7,2.7,0,0,1-.591.249q-.3.063-.622.124c-.036,0-.077,0-.124,0h-.093a2.412,2.412,0,0,1-.342,0h-.093l-.5-.031a3.089,3.089,0,0,1-1.742-.9,3.2,3.2,0,0,1-.933-2.3,2.947,2.947,0,0,1,.591-1.835M30.981,7.933a1.982,1.982,0,0,1,.186.84,1.609,1.609,0,0,1-.155.84l-.311.435h-.062l-.28.249-.062.031v.031a1.742,1.742,0,0,1-.933.249h-.031l-.249-.031a1.805,1.805,0,0,1-1-.529,1.738,1.738,0,0,1-.529-1.275A1.612,1.612,0,0,1,27.9,7.747l.124-.187.062-.062a2.012,2.012,0,0,1,.591-.373l.684-.155h.031a1.819,1.819,0,0,1,1.244.56,3.25,3.25,0,0,1,.342.4m-17.636-4.7c0-.021,0-.042,0-.062a1.864,1.864,0,0,1,.373-1.151l.124-.187.093-.062a2.563,2.563,0,0,1,.653-.435l.746-.155h.031a1.921,1.921,0,0,1,1.369.622,1.89,1.89,0,0,1,.373.436,2.346,2.346,0,0,1,.187.933,1.843,1.843,0,0,1-.156.9l-.342.5h-.062l-.342.28-.031.031h-.031a1.705,1.705,0,0,1-1,.28H15.3l-.28-.031a.325.325,0,0,1-.093-.031,1.641,1.641,0,0,1-1.027-.5c-.03-.029-.061-.06-.093-.093A1.712,1.712,0,0,1,13.345,3.3V3.237m-10.389,6.9.218-.311.155-.124A3.661,3.661,0,0,1,4.48,8.96l1.275-.28h.031A3.359,3.359,0,0,1,8.213,9.737a3.213,3.213,0,0,1,.622.778,3.568,3.568,0,0,1,.373,1.617A3.447,3.447,0,0,1,8.9,13.719l-.591.84a.126.126,0,0,0-.093.031l-.591.467-.062.031-.031.031a3.276,3.276,0,0,1-1.773.467H5.724l-.5-.031a3.162,3.162,0,0,1-1.9-.964,3.405,3.405,0,0,1-1-2.457A3.251,3.251,0,0,1,2.956,10.142Z" transform="translate(5.473 0)" fill="#faf2fd"/>
              <path id="Path_3341" data-name="Path 3341" d="M9.891,5.847a.8.8,0,0,0,.124-.187.229.229,0,0,0,.093-.093c.053-.06.106-.122.155-.187a33.406,33.406,0,0,1,2.3-2.613A25.389,25.389,0,0,1,15.832,0a21.453,21.453,0,0,0-5.567,2.955A26.051,26.051,0,0,0,7.092,5.661,22.762,22.762,0,0,0,2.426,12.1,22.294,22.294,0,0,0,.187,19.72a25.488,25.488,0,0,0,0,6.159A23.529,23.529,0,0,0,8.242,40.994,23.413,23.413,0,0,0,24.23,47.028a22.92,22.92,0,0,0,13.841-4.292,23.255,23.255,0,0,1-8.367,1.4,23.408,23.408,0,0,1-8.367-1.4,22.667,22.667,0,0,1-7.278-4.292l-.093.062a2.565,2.565,0,0,1-1.4.373H12.5l-.373-.031a2.537,2.537,0,0,1-1.493-.778,2.669,2.669,0,0,1-.809-1.96,2.628,2.628,0,0,1,.5-1.586,22.933,22.933,0,0,1-4.354-9.393H5.91a.523.523,0,0,0-.062,0H5.723L5.6,25.1a1.908,1.908,0,0,1-1.089-.56,1.949,1.949,0,0,1-.591-1.431,2,2,0,0,1,.373-1.182l.124-.156.093-.093a2.558,2.558,0,0,1,.653-.435l.342-.062-.031-1.275q0-.185,0-.373v-.124l.871-6.283q.134-.45.28-.9.144-.431.311-.871Z" transform="translate(0 1.433)" fill="#f2d3e5"/>
            </g>
          </g>
        </g>
      </g>
      <g id="Group_5910" data-name="Group 5910">
        <g id="Mask_Group_169" data-name="Mask Group 169" transform="translate(-28.397 -3236.637)" clip-path="url(#clip-path)">
          <g id="Group_5827" data-name="Group 5827" transform="translate(26.435 74.204)">
            <g id="Group_5813" data-name="Group 5813" transform="translate(121.225 530.652)">
              <path id="Path_4899" data-name="Path 4899" d="M411.775,883.845v-45.5l-.045,45.5Z" transform="translate(-367.497 -760.787)" fill="#2b374a"/>
              <g id="Group_5810" data-name="Group 5810" transform="translate(0 22.14)">
                <path id="Path_4900" data-name="Path 4900" d="M402.736,829.638l-.044,44.213-11.054-.012,10.9.01a11.206,11.206,0,0,1,11.195,11.217l-.012,10.9-44.212-.044-.011,11.211a10.9,10.9,0,0,0,10.884,10.907l22.422.022a10.9,10.9,0,0,0,10.907-10.885l.021-20.823.045-45.5.055-55.42h0l-.044,44.212Z" transform="translate(-369.5 -785.437)" fill="#b3b4b5"/>
                <path id="Path_4901" data-name="Path 4901" d="M380.737,871.829h-.152l.044-44.213-11.054-.01-.01,11.283-.044,44.133A11.2,11.2,0,0,1,380.737,871.829Z" transform="translate(-369.499 -783.437)" fill="#b3b4b5"/>
              </g>
              <path id="Path_4902" data-name="Path 4902" d="M402.645,764.322l-21.8-.022a11.2,11.2,0,0,0-11.216,11.2l-.011,10.9,44.212.044.011-10.9a11.469,11.469,0,0,0-.066-1.208A11.205,11.205,0,0,0,402.645,764.322Z" transform="translate(-369.495 -764.3)" fill="#fffdfd"/>
              <g id="Group_5811" data-name="Group 5811" transform="translate(0.01 22.095)">
                <path id="Path_4903" data-name="Path 4903" d="M369.617,785.395l-.044,44.212h0l11.053.011h0l22.106.022h0l11.053.011.044-44.212h0Z" transform="translate(-369.507 -785.395)" fill="#dcdcdc"/>
                <path id="Path_4904" data-name="Path 4904" d="M413.734,881.064a11.206,11.206,0,0,0-11.195-11.217l-10.9-.01-10.9-.01a11.2,11.2,0,0,0-11.216,11.192v0l-.011,10.9h0l44.212.044Z" transform="translate(-369.51 -781.39)" fill="#dcdcdc"/>
              </g>
              <g id="Group_5812" data-name="Group 5812" transform="translate(11.086 66.319)">
                <path id="Path_4905" data-name="Path 4905" d="M380.236,871.828l10.9.011,11.053.011.044-44.213h0l-22.106-.022h0l-.044,44.212Z" transform="translate(-380.084 -827.615)" fill="#2b374a"/>
              </g>
            </g>
            <g id="Group_5817" data-name="Group 5817" transform="translate(195.407 530.652)">
              <path id="Path_4906" data-name="Path 4906" d="M482.6,883.845v-45.5l-.045,45.5Z" transform="translate(-438.319 -760.787)" fill="#2b374a"/>
              <g id="Group_5814" data-name="Group 5814" transform="translate(0 22.14)">
                <path id="Path_4907" data-name="Path 4907" d="M473.559,829.638l-.044,44.213-11.054-.012,10.9.01a11.206,11.206,0,0,1,11.2,11.217l-.012,10.9-44.212-.044-.011,11.211a10.9,10.9,0,0,0,10.885,10.907l22.421.022a10.9,10.9,0,0,0,10.907-10.885l.02-20.823.046-45.5.055-55.42h0l-.044,44.212Z" transform="translate(-440.322 -785.437)" fill="#b3b4b5"/>
                <path id="Path_4908" data-name="Path 4908" d="M451.56,871.829h-.152l.044-44.213L440.4,827.6l-.01,11.283-.045,44.133A11.206,11.206,0,0,1,451.56,871.829Z" transform="translate(-440.321 -783.437)" fill="#b3b4b5"/>
              </g>
              <path id="Path_4909" data-name="Path 4909" d="M473.468,764.322l-21.8-.022a11.2,11.2,0,0,0-11.216,11.2l-.012,10.9,44.212.044.012-10.9a11.485,11.485,0,0,0-.066-1.208A11.205,11.205,0,0,0,473.468,764.322Z" transform="translate(-440.317 -764.3)" fill="#fffdfd"/>
              <g id="Group_5815" data-name="Group 5815" transform="translate(0.012 22.095)">
                <path id="Path_4910" data-name="Path 4910" d="M440.44,785.395l-.044,44.212h0l11.053.011h0l22.106.022h0l11.053.011.044-44.212h0Z" transform="translate(-440.33 -785.395)" fill="#dcdcdc"/>
                <path id="Path_4911" data-name="Path 4911" d="M484.557,881.064a11.206,11.206,0,0,0-11.2-11.217l-10.9-.01-10.9-.01a11.205,11.205,0,0,0-11.217,11.192v0l-.01,10.9h0l44.212.044Z" transform="translate(-440.333 -781.39)" fill="#dcdcdc"/>
              </g>
              <g id="Group_5816" data-name="Group 5816" transform="translate(11.087 66.319)">
                <path id="Path_4912" data-name="Path 4912" d="M451.059,871.828l10.9.011,11.053.011.044-44.213h0l-22.106-.022h0l-.044,44.212Z" transform="translate(-450.907 -827.615)" fill="#2b374a"/>
              </g>
            </g>
            <path id="Path_4913" data-name="Path 4913" d="M433.446,584.952V828.4a9.908,9.908,0,0,0,9.878,9.88h38.993a9.909,9.909,0,0,0,9.879-9.88V584.952Z" transform="translate(-245.241 -242.156)" fill="#dcdcdc"/>
            <g id="Group_5818" data-name="Group 5818" transform="translate(240.408 50.079)">
              <path id="Path_4914" data-name="Path 4914" d="M488.428,305.541a5.836,5.836,0,0,1,.718-.049h8.93a5.809,5.809,0,0,1,.719.049,5.88,5.88,0,0,1,5.144,5.813v30a5.879,5.879,0,0,1-5.863,5.861h-8.93a5.878,5.878,0,0,1-5.861-5.861v-30A5.879,5.879,0,0,1,488.428,305.541Z" transform="translate(-483.285 -305.492)" fill="#6b6b6b"/>
              <path id="Path_4915" data-name="Path 4915" d="M488.428,305.541a5.836,5.836,0,0,1,.718-.049h8.93a5.809,5.809,0,0,1,.719.049,5.88,5.88,0,0,1,5.144,5.813v30a5.879,5.879,0,0,1-5.863,5.861h-8.93a5.878,5.878,0,0,1-5.861-5.861v-30A5.879,5.879,0,0,1,488.428,305.541Z" transform="translate(-483.285 -305.492)" fill="#6b6b6b" opacity="0.1"/>
            </g>
            <g id="Group_5819" data-name="Group 5819" transform="translate(98.519 50.079)">
              <path id="Path_4916" data-name="Path 4916" d="M352.966,305.541a5.805,5.805,0,0,1,.719-.049h8.929a5.905,5.905,0,0,1,5.861,5.863v30a5.878,5.878,0,0,1-5.861,5.861h-8.929a5.879,5.879,0,0,1-5.863-5.861v-30A5.88,5.88,0,0,1,352.966,305.541Z" transform="translate(-347.822 -305.492)" fill="#6b6b6b"/>
              <path id="Path_4917" data-name="Path 4917" d="M352.966,305.541a5.805,5.805,0,0,1,.719-.049h8.929a5.905,5.905,0,0,1,5.861,5.863v30a5.878,5.878,0,0,1-5.861,5.861h-8.929a5.879,5.879,0,0,1-5.863-5.861v-30A5.88,5.88,0,0,1,352.966,305.541Z" transform="translate(-347.822 -305.492)" fill="#6b6b6b" opacity="0.1"/>
            </g>
            <path id="Path_4918" data-name="Path 4918" d="M514.634,402.246a40.611,40.611,0,0,0-37.784-25.3h-.07l-92.892-.007-.927.01a40.576,40.576,0,0,0-37.779,25.3l-20.623,49.635a14.928,14.928,0,0,0,3.727,16.727l10.189,9.272,3.069.472c6.9,2.865,9.621,6.4,11.088,8.309.062.08.121.158.182.236l-.027.066.044-.044c.794,1.022,1.533,1.848,2.72,1.682,1.474-.205,1.936-1.366,3.659-5.687.094-.239.194-.489.3-.749l.661,71.445.018.222a12.418,12.418,0,0,0,12.345,10.606H484.141a12.416,12.416,0,0,0,12.345-10.606l3.821-73.022a.429.429,0,0,1,.367-.208.423.423,0,0,1,.449.286A35.261,35.261,0,0,0,547,500.031l6.655-2.726Z" transform="translate(-250.46 -252.023)" fill="#dcdcdc"/>
            <path id="Path_4919" data-name="Path 4919" d="M428.418,401.38A70.255,70.255,0,0,1,371.244,372a39.119,39.119,0,0,1,9.446-1.147c.106,0,.209-.01.314-.01h93.27c.106,0,.209.009.314.01a39.151,39.151,0,0,1,10.756,1.495A70.25,70.25,0,0,1,428.418,401.38Z" transform="translate(-248.192 -252.312)" fill="#6b6b6b" opacity="0.2"/>
            <circle id="Ellipse_919" data-name="Ellipse 919" cx="70.944" cy="70.944" r="70.944" transform="translate(108.846)" fill="#dcdcdc"/>
            <path id="Path_4922" data-name="Path 4922" d="M495.58,575.229v37.1H436.806v-3.857a2.164,2.164,0,0,0-2.272-2.021h-10.9a2.164,2.164,0,0,0-2.272,2.021v3.857H362.611v-37.1a10.958,10.958,0,0,1,10.957-10.957H484.624A10.957,10.957,0,0,1,495.58,575.229Z" transform="translate(-248.602 -243.137)" fill="#dcdcdc"/>
            <path id="Path_4923" data-name="Path 4923" d="M543.489,491.767,507.3,506.8l-12.836-31.192Z" transform="translate(-242.347 -247.343)" fill="#dcdcdc"/>
            <circle id="Ellipse_920" data-name="Ellipse 920" cx="60.452" cy="60.452" r="60.452" transform="translate(119.338 10.492)" fill="#2b374a"/>
            <path id="Path_4924" data-name="Path 4924" d="M475.63,327.686a50.218,50.218,0,0,0-50.218-50.218" transform="translate(-245.622 -256.742)" fill="none" stroke="#fff" stroke-linecap="round" stroke-linejoin="round" stroke-width="2.482"/>
            <path id="Path_4925" data-name="Path 4925" d="M396.937,424.137h60.052a11.46,11.46,0,0,1,11.426,11.427v60.052a11.46,11.46,0,0,1-11.426,11.427h-8.017v9.28a6.085,6.085,0,0,1-6.068,6.067H411.02a6.085,6.085,0,0,1-6.067-6.067v-9.28h-8.017a11.46,11.46,0,0,1-11.428-11.427V435.564A11.46,11.46,0,0,1,396.937,424.137Z" transform="translate(-247.515 -249.784)" fill="#6b6b6b" opacity="0.2"/>
            <circle id="Ellipse_921" data-name="Ellipse 921" cx="13.304" cy="13.304" r="13.304" transform="translate(146.666 221.977)" fill="#6b6b6b"/>
            <rect id="Rectangle_1992" data-name="Rectangle 1992" width="22.122" height="7.536" rx="1.281" transform="translate(171.032 211.757) rotate(-180)" fill="#fc5793"/>
            <rect id="Rectangle_1993" data-name="Rectangle 1993" width="22.122" height="7.536" rx="1.281" transform="translate(171.032 201.159) rotate(-180)" fill="#3ff295"/>
            <rect id="Rectangle_1994" data-name="Rectangle 1994" width="22.122" height="7.536" rx="1.281" transform="translate(171.032 190.561) rotate(-180)" fill="#1c72f0"/>
            <rect id="Rectangle_1995" data-name="Rectangle 1995" width="22.122" height="7.536" rx="1.281" transform="translate(212.227 248.586) rotate(-180)" fill="#926df7"/>
            <rect id="Rectangle_1996" data-name="Rectangle 1996" width="22.122" height="7.536" rx="1.281" transform="translate(212.227 238.424) rotate(-180)" fill="#6b6b6b"/>
            <rect id="Rectangle_1997" data-name="Rectangle 1997" width="22.122" height="29.403" rx="1.281" transform="translate(212.227 212.428) rotate(-180)" fill="#6b6b6b"/>
            <g id="Group_5821" data-name="Group 5821" transform="translate(193.301 221.977)">
              <circle id="Ellipse_922" data-name="Ellipse 922" cx="3.142" cy="3.142" r="3.142" transform="translate(9.445 0)" fill="#6b6b6b"/>
              <circle id="Ellipse_923" data-name="Ellipse 923" cx="3.142" cy="3.142" r="3.142" transform="translate(0 0)" fill="#6b6b6b"/>
            </g>
            <path id="Path_4928" data-name="Path 4928" d="M362.611,584.952V828.4a9.909,9.909,0,0,0,9.879,9.88h38.993a9.908,9.908,0,0,0,9.878-9.88V584.952Z" transform="translate(-248.602 -242.156)" fill="#dcdcdc"/>
            <g id="Group_5823" data-name="Group 5823" transform="translate(111.857 309.955)">
              <rect id="Rectangle_1998" data-name="Rectangle 1998" width="135.181" height="14.204" rx="2.014" fill="#a8a8a8"/>
              <rect id="Rectangle_1999" data-name="Rectangle 1999" width="135.181" height="14.204" rx="2.014" fill="#a8a8a8" opacity="0.1"/>
            </g>
            <g id="Group_5824" data-name="Group 5824" transform="translate(181.899 354.707)">
              <path id="Path_4929" data-name="Path 4929" d="M427.474,613.6a2.165,2.165,0,0,1,1.658-2.564l67.577-14.662a2.166,2.166,0,0,1,2.564,1.658l2.145,9.993a2.166,2.166,0,0,1-1.658,2.564l-67.576,14.662a2.166,2.166,0,0,1-2.565-1.659Z" transform="translate(-427.426 -596.323)" fill="#a8a8a8"/>
              <path id="Path_4930" data-name="Path 4930" d="M427.474,613.6a2.165,2.165,0,0,1,1.658-2.564l67.577-14.662a2.166,2.166,0,0,1,2.564,1.658l2.145,9.993a2.166,2.166,0,0,1-1.658,2.564l-67.576,14.662a2.166,2.166,0,0,1-2.565-1.659Z" transform="translate(-427.426 -596.323)" fill="#a8a8a8" opacity="0.1"/>
            </g>
            <g id="Group_5825" data-name="Group 5825" transform="translate(105.406 354.707)">
              <path id="Path_4931" data-name="Path 4931" d="M428.39,613.6a2.166,2.166,0,0,0-1.658-2.564l-67.577-14.662a2.167,2.167,0,0,0-2.565,1.658l-2.145,9.993a2.166,2.166,0,0,0,1.659,2.564l67.576,14.662a2.166,2.166,0,0,0,2.564-1.659Z" transform="translate(-354.397 -596.323)" fill="#a8a8a8"/>
              <path id="Path_4932" data-name="Path 4932" d="M428.39,613.6a2.166,2.166,0,0,0-1.658-2.564l-67.577-14.662a2.167,2.167,0,0,0-2.565,1.658l-2.145,9.993a2.166,2.166,0,0,0,1.659,2.564l67.576,14.662a2.166,2.166,0,0,0,2.564-1.659Z" transform="translate(-354.397 -596.323)" fill="#a8a8a8" opacity="0.1"/>
            </g>
            <path id="Path_4933" data-name="Path 4933" d="M511.876,417.908l23.21,56.546-23.37,46.238-13.6-33.055Z" transform="translate(-242.174 -250.08)" fill="#dcdcdc"/>
            <g id="Group_5826" data-name="Group 5826" transform="translate(248.513 208.903)">
              <path id="Path_4934" data-name="Path 4934" d="M491.236,477.328a2.332,2.332,0,0,1,1.146-3.09l37.07-16.907a2.349,2.349,0,0,1,3.1,1.155l3.484,7.583a2.334,2.334,0,0,1-1.146,3.09l-37.071,16.907a2.349,2.349,0,0,1-3.1-1.155Z" transform="translate(-491.023 -457.122)" fill="#dcdcdc"/>
              <path id="Path_4935" data-name="Path 4935" d="M491.236,477.328a2.332,2.332,0,0,1,1.146-3.09l37.07-16.907a2.349,2.349,0,0,1,3.1,1.155l3.484,7.583a2.334,2.334,0,0,1-1.146,3.09l-37.071,16.907a2.349,2.349,0,0,1-3.1-1.155Z" transform="translate(-491.023 -457.122)" fill="#a8a8a8"/>
            </g>
            <path id="Path_4936" data-name="Path 4936" d="M356.956,804.3a1.891,1.891,0,0,1,1.794-1.965h65.637a1.891,1.891,0,0,1,1.794,1.965v9.3a1.892,1.892,0,0,1-1.794,1.965H358.75a1.892,1.892,0,0,1-1.794-1.965Z" transform="translate(-248.87 -231.843)" fill="#a8a8a8"/>
            <path id="Path_4937" data-name="Path 4937" d="M427.779,804.3a1.891,1.891,0,0,1,1.794-1.965H495.21A1.891,1.891,0,0,1,497,804.3v9.3a1.892,1.892,0,0,1-1.794,1.965H429.573a1.892,1.892,0,0,1-1.794-1.965Z" transform="translate(-245.51 -231.843)" fill="#a8a8a8"/>
          </g>
        </g>
      </g>
      <g id="Group_5889" data-name="Group 5889" transform="translate(234.281 -3069.582)">
        <g id="Group_5686" data-name="Group 5686">
          <rect id="Rectangle_2245" data-name="Rectangle 2245" width="124.45" height="248.975" transform="translate(7.628 8.815)" fill="#fff"/>
          <path id="Path_4733" data-name="Path 4733" d="M496.8,328.3h63.918a1.89,1.89,0,0,0,0-3.781H496.8a1.89,1.89,0,0,0,0,3.781Z" transform="translate(-458.902 -313.95)" fill="#ff5592"/>
          <path id="Path_4734" data-name="Path 4734" d="M596.957,317.559H485.15A13.964,13.964,0,0,0,471.2,331.506V569.752c0,.167.02.33.026.5A13.925,13.925,0,0,0,485.15,583.7H596.957a13.93,13.93,0,0,0,13.924-13.451c.006-.167.025-.33.025-.5V331.506A13.965,13.965,0,0,0,596.957,317.559Zm10.419,26.365V569.752a10.43,10.43,0,0,1-10.419,10.418H485.15a10.43,10.43,0,0,1-10.419-10.418V331.506a10.431,10.431,0,0,1,10.419-10.419H596.957a10.431,10.431,0,0,1,10.419,10.419Z" transform="translate(-471.201 -317.559)" fill="#6e31fb"/>
          <rect id="Rectangle_2246" data-name="Rectangle 2246" width="6.253" height="6.253" rx="1.407" transform="translate(66.727 236.952)" fill="#ff5592"/>
          <path id="Path_4735" data-name="Path 4735" d="M520.457,471.247h-1.981a5.671,5.671,0,0,0-5.665,5.665v1.98a5.671,5.671,0,0,0,5.665,5.665h1.981a5.671,5.671,0,0,0,5.666-5.665v-1.98A5.672,5.672,0,0,0,520.457,471.247Zm2.135,7.646a2.136,2.136,0,0,1-2.135,2.135h-1.981a2.136,2.136,0,0,1-2.137-2.135v-1.98a2.137,2.137,0,0,1,2.137-2.137h1.981a2.137,2.137,0,0,1,2.135,2.137Z" transform="translate(-449.613 -237.824)" fill="#6e31fb"/>
          <path id="Path_4736" data-name="Path 4736" d="M595.8,319.882H483.922A10.432,10.432,0,0,0,473.5,330.3V568.547a10.431,10.431,0,0,0,10.419,10.418H595.8a10.43,10.43,0,0,0,10.418-10.418V330.3A10.431,10.431,0,0,0,595.8,319.882Zm-85.79,7.037h59.7a1.89,1.89,0,1,1,0,3.78h-59.7a1.89,1.89,0,1,1,0-3.78ZM599.158,533.8v31.5a6.731,6.731,0,0,1-6.732,6.73H487.294a6.731,6.731,0,0,1-6.731-6.73V333.8a6.731,6.731,0,0,1,6.731-6.731h15.286a2.609,2.609,0,0,1,2.609,2.609V330.7a2.624,2.624,0,0,0,2.623,2.624h64.1a2.624,2.624,0,0,0,2.623-2.624v-1.019a2.609,2.609,0,0,1,2.609-2.609h15.285a6.731,6.731,0,0,1,6.732,6.731Z" transform="translate(-470.007 -316.354)" fill="#6e31fb" stroke="#6e31fb" stroke-miterlimit="10" stroke-width="1"/>
        </g>
        <g id="Group_5888" data-name="Group 5888" transform="translate(122.487 60.758)">
          <path id="Path_4737" data-name="Path 4737" d="M579.569,383.841c8.95-7.133,23.024-3.53,28.862,5.823,6.406,8.958,4.572,23.673-5.178,29.609l-20.5,14.326c-23.1,16.142-46.785-19.288-23.682-35.432Z" transform="translate(-549.385 -380.079)" fill="#6b6b6b" fill-rule="evenodd"/>
          <path id="Path_4738" data-name="Path 4738" d="M579.518,401c8.952-7.133,23.025-3.533,28.863,5.821,6.405,8.958,4.571,23.673-5.178,29.61l-20.5,14.326c-23.1,16.142-46.786-19.288-23.682-35.43Q569.268,408.165,579.518,401Z" transform="translate(-549.45 -357.536)" fill="#6b6b6b" fill-rule="evenodd"/>
          <path id="Path_4739" data-name="Path 4739" d="M579.468,418.42c8.953-7.133,23.024-3.533,28.861,5.823,6.406,8.958,4.574,23.67-5.177,29.609l-20.5,14.326c-23.1,16.142-46.785-19.289-23.682-35.43Q569.217,425.581,579.468,418.42Z" transform="translate(-549.518 -334.658)" fill="#6b6b6b" fill-rule="evenodd"/>
        </g>
        <g id="Group_5692" data-name="Group 5692" transform="translate(30.947 89.527)">
          <ellipse id="Ellipse_73" data-name="Ellipse 73" cx="39.376" cy="39.376" rx="39.376" ry="39.376" transform="translate(0)" fill="#ff9000"/>
          <ellipse id="Ellipse_74" data-name="Ellipse 74" cx="27.005" cy="27.005" rx="27.005" ry="27.005" transform="translate(12.371 12.371)" fill="#ec7000"/>
          <g id="Group_5622" data-name="Group 5622" transform="translate(32.644 22.223)">
            <path id="Path_4627" data-name="Path 4627" d="M404.57,521.874a14.841,14.841,0,0,1-3.253-.831,1.669,1.669,0,0,1-1.051-1.562v-.245a1.678,1.678,0,0,1,2.214-1.6,12.231,12.231,0,0,0,4.03.735,5.765,5.765,0,0,0,3.243-.772,2.579,2.579,0,0,0,1.141-2.281,2.724,2.724,0,0,0-1.036-2.192,12.508,12.508,0,0,0-3.664-1.771,9.979,9.979,0,0,1-4.4-2.594,5.736,5.736,0,0,1-1.384-3.929,6.167,6.167,0,0,1,1.49-4.155,7.144,7.144,0,0,1,3.013-2.042,1.665,1.665,0,0,0,1.072-1.567v-1.283a1.684,1.684,0,0,1,1.684-1.684h0a1.684,1.684,0,0,1,1.684,1.684v.689a1.686,1.686,0,0,0,1.429,1.661,10.633,10.633,0,0,1,2.022.527,1.692,1.692,0,0,1,1.107,1.585v.136a1.68,1.68,0,0,1-2.179,1.59,9.978,9.978,0,0,0-2.8-.4,5.3,5.3,0,0,0-3.051.753,2.461,2.461,0,0,0-1.087,2.157,2.377,2.377,0,0,0,.893,1.929A11.618,11.618,0,0,0,409,507.992a12.088,12.088,0,0,1,4.909,2.823,5.827,5.827,0,0,1,1.51,4.121,6.638,6.638,0,0,1-1.613,4.559,7.107,7.107,0,0,1-3.265,2.056,1.69,1.69,0,0,0-1.19,1.608v1.175a1.684,1.684,0,0,1-1.684,1.684h0a1.684,1.684,0,0,1-1.684-1.684v-.8A1.67,1.67,0,0,0,404.57,521.874Z" transform="translate(-400.267 -494.104)" fill="#ffddb2"/>
          </g>
        </g>
      </g>
    </g>
    <g id="Group_5924" data-name="Group 5924" transform="translate(-12)">
      <g id="Group_5911" data-name="Group 5911">
        <path id="Path_4992" data-name="Path 4992" d="M348.98,474.072l-14.787-6.764A18.759,18.759,0,0,0,308.975,477.4L266.413,584.278a18.848,18.848,0,0,0,10.115,24.266l13.919,5.875a18.76,18.76,0,0,0,24.645-10.151L358.52,498.276A18.7,18.7,0,0,0,348.98,474.072Z" transform="translate(-154.571 -120.087)" fill="#dcdcdc"/>
        <path id="Path_4993" data-name="Path 4993" d="M262.928,605.323l34.881,14.723-8.47,20.559a9.782,9.782,0,0,1-12.76,5.39l-16.721-6.816a9.782,9.782,0,0,1-5.377-12.724Z" transform="translate(-155.107 -113.46)" fill="#6b6b6b"/>
        <g id="Group_5908" data-name="Group 5908" transform="translate(103.929 478.238)">
          <rect id="Rectangle_1990" data-name="Rectangle 1990" width="13.007" height="45.461" rx="2.229" transform="matrix(0.389, -0.921, 0.921, 0.389, 0, 11.983)" fill="#6b6b6b"/>
          <rect id="Rectangle_1991" data-name="Rectangle 1991" width="13.007" height="45.461" rx="2.229" transform="matrix(0.389, -0.921, 0.921, 0.389, 0, 11.983)" fill="#6b6b6b" opacity="0.1"/>
        </g>
      </g>
      <g id="Group_5909" data-name="Group 5909" transform="translate(159.644 333.942)">
        <path id="Path_4926" data-name="Path 4926" d="M365.306,478.489a2.763,2.763,0,0,0-1.357-3.66L320.035,454.8a2.783,2.783,0,0,0-3.668,1.369l-4.127,8.981a2.763,2.763,0,0,0,1.357,3.661l43.913,20.027a2.781,2.781,0,0,0,3.668-1.368Z" transform="translate(-311.989 -454.554)" fill="#a8a8a8"/>
        <path id="Path_4927" data-name="Path 4927" d="M365.306,478.489a2.763,2.763,0,0,0-1.357-3.66L320.035,454.8a2.783,2.783,0,0,0-3.668,1.369l-4.127,8.981a2.763,2.763,0,0,0,1.357,3.661l43.913,20.027a2.781,2.781,0,0,0,3.668-1.368Z" transform="translate(-311.989 -454.554)" fill="#a8a8a8" opacity="0.1"/>
      </g>
    </g>
  </g>
</svg>
